<svg id="Calque_1" data-name="Calque 1" xmlns="http://www.w3.org/2000/svg" viewBox="0 0 34.64 27.15"><defs><style>.cls-1{fill:#8c8c8c;}</style></defs><title>image-F</title><polygon class="cls-1" points="34.58 12.7 34.31 12.57 33.18 12.82 33.23 12.56 33.67 12.18 33.69 11.85 33.41 11.36 33.5 11.04 33.76 11.21 33.72 10.87 33.43 10.72 33.37 10.43 32.67 10.45 32.59 10.27 32.71 10.13 32.36 9.64 32.54 9.36 32.19 8.02 32.73 7.2 32.42 6.76 31.27 6.11 30.92 5.59 30.59 5.75 30.43 6.12 29.89 6.33 29.54 5.64 29.16 5.41 28.32 5.47 27.64 5.76 27.66 5.57 27.18 5.34 27.3 5.22 27.24 4.84 27.04 4.63 26.28 4.88 25.98 5.46 25.71 5.45 25.54 5.71 25.36 5.69 25.63 5.32 25.4 5.21 25 5.83 25 6.15 24.72 6.07 24.49 6.5 24.54 6.74 23.98 6.65 23.83 7.13 23.41 7.12 23.29 7.63 23.53 7.77 23.56 8.02 23.36 8.32 23.41 8.78 22.63 8.93 22.39 8.5 22.05 8.92 21.7 8.79 21.53 8.94 21.1 8.9 20.79 9.75 20.79 9.75 20.65 9.93 20.5 9.7 20.25 9.7 19.8 10.1 19.69 9.86 19.86 9.55 19.69 9.62 19.16 9.18 19.19 8.84 18.69 9.25 18.38 8.95 18.17 8.99 18.23 8.66 17.96 8.69 17.96 8.47 17.46 8.77 17.38 7.84 17.03 7.78 17.63 7.33 17.67 7.14 17.39 6.9 17.34 6.56 17.12 6.5 16.93 5.89 16.65 5.93 16.57 6.2 16.34 6.04 16.61 5.66 16.45 5.41 15.95 5.39 16.15 5.07 16.02 4.85 15.56 4.87 15.29 4.67 15.01 4.75 14.3 4.55 13.9 4.85 14.06 5.32 12.08 5.4 11.9 5.85 11.5 5.78 11.32 5.55 11.35 5.27 11.09 5.33 11.24 5.39 11.15 5.64 10.87 5.42 10.71 5.57 10.39 5.83 10.23 5.6 9.98 5.59 9.86 5.84 9.53 5.63 9.37 5.78 8.62 5.79 8.78 5.18 8.62 4.91 8.5 5.19 8.27 5.14 8.16 4.88 8.42 4.9 8.43 4.75 8.03 4.39 7.77 3.48 7.35 3.3 7.42 2.89 7.14 2.79 7.21 3.01 6.75 3.21 6.45 2.59 6.02 2.66 6.37 2.15 6.2 2.07 6.35 1.62 6.01 1.43 6.09 1.23 5.73 0.99 5.4 0.41 5.09 0.29 4.78 0.51 4.66 0.12 4.35 0 4.25 0.34 4.02 0.37 3.58 0.23 3.35 0.44 2.41 0.34 2.1 0.63 1.64 0.5 1.38 1.17 1.64 1.85 1.29 2.38 0.74 2.67 0.74 2.92 1.5 3.29 1.39 3.5 1.55 3.49 1.67 4.03 2.28 4.56 2.07 4.68 2.29 4.84 2.31 5.26 2.04 5.56 1.95 5.63 1.67 6.01 1.33 6.08 1.36 6.47 1.22 6.55 1.52 6.76 1.36 6.96 1.47 7.53 0.04 7.89 0 8.39 0.26 8.35 0.26 8.55 0.65 8.82 0.59 8.98 0.87 9.27 0.7 9.49 0.73 9.83 1.06 10.19 0.92 10.34 0.56 10.23 0.21 10.48 0.08 10.39 0 10.55 0.22 10.78 0.69 11.78 0.17 12.99 0.26 13.25 1.1 13.92 1.08 14.32 1.51 15.61 1.4 16.3 1.9 16.79 1.78 17.38 1.91 17.61 1.66 18.18 1.82 18.86 1.51 19.54 1.73 20.06 2.32 20.34 2.92 20.96 3.47 20.47 3.73 20.48 3.83 20.8 4.11 20.86 4.38 20.52 4.72 20.5 4.98 20.79 4.9 21.12 5.22 21.27 5.5 20.87 5.87 20.8 5.76 20.4 6.17 20.38 6.07 20.2 6.16 19.89 6.43 20.08 6.69 20.22 7.33 20.05 7.7 20.24 7.82 20.66 8.89 20.19 9.46 19.73 9.77 19.62 9.94 19.74 9.94 19.75 9.77 19.63 9.46 19.73 8.89 20.19 7.82 20.66 7.7 20.25 7.33 20.05 6.69 20.23 6.43 20.09 6.51 20.6 7 21.17 7.2 21.55 7.13 21.77 7.32 21.85 7.37 22.61 7.89 22.85 8.16 22.7 8.39 23.2 9.1 23.16 9.1 23.34 9.49 23.52 9.29 24.28 9.36 25.11 9.53 25.12 9.39 25.27 9.05 25.19 9.03 25.44 8.64 25.53 8.66 25.73 8.74 26.08 8.59 26.46 9.27 26.6 9.44 26.96 9.64 26.96 10.34 26.65 10.58 26.91 10.96 26.95 11.2 26.7 11.35 26.9 11.58 26.78 11.54 27.13 11.76 27.15 12.19 26.81 12.54 26.82 12.47 26.64 12.68 26.39 12.76 25.65 13.01 25.42 13.51 25.58 13.64 25.83 13.99 25.76 14.11 25.51 14.29 25.81 14.58 25.86 14.73 25.44 15.09 25.38 15.34 25.7 15.08 25.94 15.55 26.24 15.41 26.31 15.54 26.49 15.46 26.87 15.91 26.92 17.23 22.85 17.32 23.06 17.59 22.89 18.19 23.26 18.84 22.97 19.09 23.02 19.1 22.84 19.42 23 19.66 23.57 20.31 23.71 20.31 23.71 20.38 23.91 20.18 24.1 20.82 24.46 20.69 24.61 21.03 24.98 21.04 25.32 21.21 24.87 21.31 25.26 21.63 25.26 21.48 25.75 21.61 25.87 22.15 25.82 22.38 25.51 22.62 25.49 23.01 24.91 23.04 25.16 23.59 25.33 23.69 25.91 24.88 25.86 26.48 24.06 26.66 23.74 26.55 23.51 27.22 22.63 27.09 22.38 26.86 22.15 26.99 22 29.67 19.78 29.49 19.33 29.77 18.41 29.5 17.94 30.04 17.39 31.06 17.16 31.87 16.47 31.64 16.27 31.73 16.09 32.85 15.28 33.02 15.09 32.88 15.01 33.81 14.15 33.71 13.61 34.15 13.52 34.27 13.16 34.64 13.05 34.58 12.7"/></svg>