<svg id="Calque_1" data-name="Calque 1" xmlns="http://www.w3.org/2000/svg" viewBox="0 0 19.69 42.75"><defs><style>.cls-1{fill:#666;}</style></defs><title>image-M</title><path id="FR-G" class="cls-1" d="M26,45.5l.56-1.25.3.31,1-.44.83-1.05-2-.68-.59.37L26,41.69l-1.31.5,0-.45-.88,0,1.38-.93-.36-.67L26,39.87l.23-.54.09-.46L26.1,38l.47-.33-1.06-1-.56.65-1.49-.06-.66.43.3-1.07-.59-.78,1.08-.09.4-.37-.17-.76,1.68-1L25,33.35l-.37-1.27-.79.31-.91-.89-.61.17.08-.61-.47-.51.46-.19-.08-.69-.15-.58-.64-.24,3-.76-.67-.93-1.08-.08-.13-.35.58-.34-.25-.46-1.2.41-.16-1.08.47.16.77-.45-.07-.78,1,0,.17-.5-.3-.21.61-.69-.6-.25.35-1,1-.25-.27-1.15.38-.4,0,.61.53-.26.65.47.26-1.27,1.25-.15.23-.54,1-.46.29.34,1.31-.2.87-.52,0-.92L32.78,16l1.87-.1,1.48,1.53L37,15.84l0-1.54-.64-1,.6-.86-.36-.9.76-.63-.41-1.84,1.6-.46.78.66-.24.63.8,4.09L39,17.44l1.68,3.32v4.63l.53,2.29,0,2.26L41,32.33l-2.65,3.88-.35,4,.24,2.2-.65.89.27.86-.85.34-.66.09-.57.83.17.55.59-.77,1,.27-.5.91-1.35.73.09,1.7-1.07.56.08.65-.35.1.26.24.83-.62-.11.37-.75,1.21-.8.06-.44-.72-1.23,0,.52-1.12-1-.17.18-.94-.77.63-.79-.85-.29.42-.44-.48-.78.09-.85-.9-.64.17.21-.75-1.29-.23L26.6,46Z" transform="translate(-21.49 -8.62)"/></svg>