<svg id="Calque_1" data-name="Calque 1" xmlns="http://www.w3.org/2000/svg" viewBox="0 0 39.82 29.76"><defs><style>.cls-1{fill:#b3b3b3;}</style></defs><title>image-G</title><path id="FR-C" class="cls-1" d="M50.77,33.19l-.11-.4-.39,0,0-.25-.42-.12,0-.77-.14-.15.18-.58-.26-.16-.4,0-.84-.82.1-1.24.94-.11.43-.28,0-.31.32-.26-.05-.35L50,27.22l.12-.09-.69-1L49,26.4l-.13-.1.2-.81-.79-.15.05-.74.47-.86-.73-.84.27-.27.11-.53-1.07-.31-1.27,0-2.08,1.09-.25.54.21.09-.08.29.18.29.38-.05-.11.35-.49.22-.81.74-.59-.14-.12.19L42,25.27l-.28.18.29-.59-.23-.17.12-.23,1.12-.39-.17-.38.53-.92-.82-.55h0l-1.52,1.7L40,24l-.09-.54-.52-.17,0-.23-.37.55-.23,0-.21.29-.51,0-.13-.11.08-.55-.23.09-.1-.37-.16.42v-.32l-.32-.36.12-.14-.61-.35.19-.17-.07-.2-.61-.13-.26-.57-.26-.12v.17l-.24-.05-.61.28-.57-.35-.26.16-.07-.2L32.6,24.91l-.42,0,.07-.36-.12-.17.13-.07L31.82,24l.24-.22-.24-.31-.33.06-.15.4-.27,0L31,23.59l-.23.26-.27,0-.35-.33-.41,0-.14.93-.2.15.08.15h-.35l-.36.31-.24,0,0-.33-.22.11-.14-.19-.23.23-.35,0-.23-.24-.57.33h-.31l-.13-.37-.64-.13.15-.36-.14-.43.41-.17,0-.24.32.08.13-.14-.15,0-.07-.78.18-.71-.36-.18,0-.17-.63.06-.23-.49-.26.14-.49-.22,0-.72L24.29,20l.06-.21-.19-.36-.46-.55-.11-.54-.28-.08-.1.14.16.28-.38,0,.1.38-.12.12-.12-.13-.34.42h-.23l0-.43L22,18.85h-.32l-.25.33-.26-.06-.1-.3h-.24l-.54.46-.55-.58-.55-.27-.21-.5h0l-.53-.11-.33.13-.55.53,0,.23-.37-.1-.29.2-.21-.34-.14,0-.11.3-.6.32,0,.36-.18-.14-.27.14.2.22-.23.35.29.16.09.47-.61.39-.39-.15-1,.18-.29.52h-.19l-.14.57h0l.05.43.36.1L13.3,23l.49.37.18-.24.26.54.08-.15.39.18.34,1,.31.36-.12.78.17.43.23.14-.07.49.14.21-.37.17-.16.27.1.21-.44.3-.06.25-.25,0h0l-.2.35-.22,0-.11.15.43.74.32.11.3.43v.76l-.28,0-.19.5.22.39.22.07-.24,1.5.32.3-.37.24L14,33.42h-.3l.16.27-.07.56-.34.17-.21.37-.16,0-.22.47-.36.3.05.44.24.17-.41.31-.05.6-.23,0-.35.29.35.64-.26.22h0l-.06,0h0l-.31.08h0l.12.45.2.15-.14.18,0,.33.63.93-.33,1h.23l.1.64.28.22.13-.07-.07-.28.62-.21.25,0,.2.33,1-.11.12-.42.47-.34-.08-.36.39-.42,0-.59,1-1,.29.32v.62l.25-.2h.43l.22.93.25,0,.13.21-.2.14.18.19v.7l.35.39.28-.75.17,0-.1-.14.15-.78.2-.41.21,0,0-.35h0l0-.22.22-.19.47.45.34-.28-.1-.24.2-.08-.06-.21.2-.08.15.17.66-.53v.17l.34.2v.48l.54,1,.15-.19.5-.13.14.11,0-.54h.47l.16.24-.06.28.6-.1.51.8.19-.13v.31l.31.08-.11.32.18.16-.11.2.22.36,0,.55.2.27.18,0,.28,1.07.63.73-.22.15.14.3-.17.36.09.12.64-.19.1.25.28-.05.61.57.24-.3v-.25l.3-.25.51-.09,0,.61.33.08.12-.6.41-.06.05.16.29,0,.08.25.71.34h0v-.65l1.07.18.24.93.47-.36h.33l1.07-.52.13.26.25.07.33-.35h0l.12-.06h0l-.11.9.6.23.15-.22.38.26.44-.08.23.15v.49l.41,0,.15.35.38,0,.3-.18.32-.27L38.7,47l.08-.17.21-.05.29.25-.07.19.37,0,0-.18L39.37,47l0-.16.27-.07V46h-.31l-.08-.37L39,45.52l.17-.3-.63,0L38.37,45l-.22.14-.49-.4.1-.18-.19-.37.15-.09.3.15.16-.19L37.92,44l-.05-.56,1.21.3.11-.31.28,0L39,42.94l.4-.74,0-.43.67.14.16-.25.31.09.32-.4-.25-.17.22-.58.43.14.53-.15.23-.23-.24-.25.53-.34.3.21.6-.53.88.14.34-.24.35.28.15-.07,0-.93-.28-.16V38l-.56,0-.37-.22.12-.53.19-.07-.11-.34.12-.21.14-.07.24.2.31-.17.24.23v.36l.67.2.28,0,0-.42.23-.18.24.11.28-.27.41.16h0l.38-.34.48,0,.2-.24.63.36.34-.11v-.35l.41,0,.44-.56.63,0,.41-.43-.19-.79.41-.37.09-.54Z" transform="translate(-11.43 -17.83)"/></svg>