<svg id="Calque_1" data-name="Calque 1" xmlns="http://www.w3.org/2000/svg" viewBox="0 0 46.48 33.62"><defs><style>.cls-1{fill:#8c8c8c;}</style></defs><title>image-C</title><path id="FR-I" class="cls-1" d="M52.83,28.71l.21.69h.31l.13.34-.15,1,.14.33.59.2.52,1H54.3v.31l-1.55,1.2L53,34l-.22.18.08.61-.35.7.14.5-.79-.27-.49.12-.54.91.41.14-.09.29L50,37.85l-.09.09-.74.36-.1.49h0l-.86-.32-.14-.29.18-.28L48,37.64l-1.19.08-.45.19.11.08-.73.44-.7.73-.43.15,0,.21-.73.21L43,40.5l-.4.66-.71-.29-.68.21-.09.07-1.44,1.17-.52.79-.75,2.06.2.27-.29,2.61.14,0-.12,1.11.14.85.85.31-.16.13.06.28.23.07.2.46-.82.16-.48-.6-.59.12-.18-.2-.26.31-.43-.13-.64.59-.59-.07-.54.25-.19.21.18.56-.86-.21-.32.3-.53-.08-.44-.64-1.58-.54-.5.27-.41-.1-.63.74-.62.17L28.69,52l-.26-.86-.48,0-.52-.46-.85-.1.08-.74.51-.31-.62-.11.09-.32L25.41,49,25,48.64l-.51,0-.22.57-.29,0-.42-1-.35-.2,0-.19-.92.05-.2-.16-.55.23-.81-1-.86,0-.21-.23-.31.2-.63-.46-1.33-.43L17,46.4l.1.42-.23.27.2.09-.22.25.32.35,0,.43L16.4,48l-1.57.18-.56-.4-.59.62-.31-.52-.75-.26-1,.47-.41,0-.15.2-.49-.09-.11-.31-.39-.1-.43-.88L9.34,47l-1.12-.76h0l-.13-.83.42-.2-.06-.87.26-.11V44l.73-.18-.17-.19L9.31,43l.42-.18.26-.63.1.16.34-.13,0-.57.21.05.29-.64-.26-.38.18-.34.33,0,.18-.26-.3-.32,0-.9-.38.43h-.22l.15-.1-.18-.2,0-.34.43-.11-.28-.24.09-.26-.23-.44-.25.06,0-.48-.58,0-.15-.2-.55.17-.08-.41-.29,0,0-.3.17.08v-.2l.19,0-.07-.65.5-.37-.22-.16L9,34.47l.3,0-.14-.59.2-.13-.48-.36.54-.52.18.14.3-.19.27.18,0-.24.43-.16.08-.29.39.38-.25.31.72.41.15-.26-.18-.56.64-.5.27.36.32-.53.35-.09,0,.14.64.25.13-.23.6,0,.55-.28.17-.34H16l.33-.31.64.7.69-.46.16-.57.37,0-.08-.41.66.21.29-.14L19,29.9l-.23.05-.06-.16.48-.08.2-.95.2-.1-.31-.35-.2.08-.22-.18.24-.89.22,0,.19.49.09-.21,1-.05-.05-.76-.34-.23v-.77l-.32-.47.3.09.27-.31.53-.14-.09-.25.53-.57-.05-.39.68-.17.42-.49.15.08.11-.35.15,0,.06-.31-.22-.14v-.25l.61-.19,0-.41.7-.45-.25-.4L24,20.6l-.25-1h0l0-.15h0l1.13-.53.09.22L25.2,19l.5.11.47.36.21.44.39.16v.25l.46.18,1-.69.29.06.07.26.34-.28.68,0h0l.14.52.23.18-.16.21.06.38.72,1.07-.38,1.16h.26l.11.74.32.25.15-.08L30.95,24l.72-.24.28,0,.23.38,1.18-.13.14-.48.55-.39L34,22.65l.45-.49,0-.68,1.19-1.21.34.37v.71l.29-.24h.49L37,22.19l.29-.06.15.25-.23.16.21.22,0,.81.4.45.32-.87.2,0L38.24,23l.18-.91.24-.47.24.05,0-.41H39L38.93,21l.25-.22.54.52.4-.32L40,20.68l.23-.09-.07-.24.23-.09.17.2.77-.61V20l.39.23,0,.55L42.37,22l.18-.22.58-.15.17.13,0-.63h.54l.19.28L44,21.7l.69-.12.59.93.22-.15v.36l.36.1-.13.36.21.18-.13.23.26.42,0,.64.23.31.21,0,.32,1.24.73.84-.26.18.16.35-.19.42.1.14.74-.22.12.29.32-.06.71.66.28-.34v-.29l.35-.29.59-.1,0,.7.38.09.14-.69.47-.07.06.19.33,0,.09.29Z" transform="translate(-8.09 -18.94)"/></svg>