<svg id="Calque_1" data-name="Calque 1" xmlns="http://www.w3.org/2000/svg" viewBox="0 0 36.7 30.7"><defs><style>.cls-1{fill:#ccc;}</style></defs><title>image-J</title><path id="FR-M" class="cls-1" d="M24.69,49l.36-.6L24.74,48l.29-.19-.1-.25-.11.21,0-.38,0-.15-.45-.39-.85.47-1.88.05-.34-.25v-.39L20.78,46l-.52-.1-.15,0-.25.15,0,.12-.52-.28.35.41-.29-.07-.11.13.31.12v0l-.17.17.45.29.41-.35-.59.75-.25,0-.65-.3-2-.17-.26-.29.4-.33L16.78,46l-.6-.44L13,45.46h0l.11-.57.86-.42.11-.11,1.35-.78.11-.33L15,43.08,15.67,42l.58-.14.93.31L17,41.6l.41-.82-.09-.71.26-.21-.27-.32,1.82-1.41v-.37l.32,0-.61-1.12-.69-.23L18,36l.17-1.16L18,34.47l-.36,0-.25-.81h0v-.87l1.45.25.32,1.26.64-.49h.45l1.45-.7.17.35.34.09.45-.47h0l.17-.08h0l-.15,1.22.82.3.2-.29.52.36.6-.11.31.21,0,.66.55.05.21.48.51.05.4-.25.44-.36L27,35.11l.11-.23.29-.07.4.34-.09.25.5.06,0-.25-.42-.12.09-.26.36-.1v-1h-.42l-.11-.49-.3-.08.22-.4-.86,0-.28-.3-.3.19-.66-.54.13-.24-.25-.5.2-.12.41.2.22-.26L26,31l-.07-.76,1.64.41.15-.42.37,0-.7-.61.54-1L27.87,28l.91.19.21-.34.42.13.43-.55-.33-.24.3-.79.59.19.72-.21.31-.31-.32-.34.72-.46.41.29L33,24.9l1.19.18.46-.33.47.38.21-.1,0-1.25L35,23.57v-.67l-.76,0-.5-.29.16-.72.26-.09-.15-.47.16-.28L34.4,21l.32.27.41-.22.33.31v.48l.91.27.38,0-.07-.56.32-.24.33.14.38-.36.56.22h0l.45,1.35.75.08-.07.35.29.45-.22.32.08.5,1.19.82.49.09.27-.27.91.57-.24.51.8,1.56-.87-.12-.33.21-.15.36.2.49-.19,0-.18.65-.57.27-.24.38.24.71.74.74-.59.12L41,32.3l.37.17.35.8.4.23.13.65,1.9.5,1,.89.67-.08.15.45.37-.14.34.19.06-.27.32.07,1.06-.45.6.1.19-.4.5,0-.19.64.51.69-.1.61-.45.2L49,38l-.9.47-.09.67-.65.34.37,1.32-.41.21-.06.29L47,41.11l-.25.14-.33.46-.71.09.11.37-.17.16-.19-.44-.11.31L45.17,42l-.45.13-.35.56-.09-.17-.46.13-.37,1,.25.51-.25.15-.24-.42-.63.52-.24-.23-.56.13-.27.41.21.25-.69,1-.31-.08-.08.32-.69,0L39.49,46l-.3,1.08-.38.1-.1.41-1,.59.94.11.14-.21.2.18-.34.34.17.62-.41.19.05.27-.27.14L38,49.45l-.4-.08-.68.55L35.69,50l-.24.29,0,.54-.95-.5-.92.09-.39.71,0,.42.21,0-.18.09-.63,0,0-.16.38-.06-.05-.5-1.09,0-.21-.4-.78.05-.05-.32-.35.09-.07.23.3,0,.25.21.15.27-.6-.16-.34.46-.33,0-.37-.27.16-.67h-.44l.06-.33L28.44,50l-.1-.52-.68-.1-.19.38L26.75,49l-.39.25Z" transform="translate(-12.99 -21)"/></svg>