<svg id="Calque_1" data-name="Calque 1" xmlns="http://www.w3.org/2000/svg" viewBox="0 0 38.61 53.08"><defs><style>.cls-1{fill:#8c8c8c;}</style></defs><title>image-N</title><path id="path5886" class="cls-1" d="M39.67,57.43c-.47,0-.83,0-1.06.5s-.79,0-1.11-.13a1,1,0,0,0-1.32.68,4.43,4.43,0,0,0-.11.66c-.09.31-.41.24-.43,0-.05-1,.07-2.14-1.14-2.44s-1.78.28-1.53,1.48a1.92,1.92,0,0,1,.06.63.53.53,0,0,0-.46.18c-.18.24-.12.59-.32.83a2.22,2.22,0,0,1-1.13.57c-.58,0-.55-.92-.79-1.27a.94.94,0,0,0-1.21-.27c-.21.16-.13.64-.52.49a11.75,11.75,0,0,1-.29-1.48c-.14-.47-.82-.66-1.28-.66s-.84,1.3-1.43,1.63c-.15.1-.31-.92-.08-1.13.45-.41.21-.69.25-1.34s.69-2.59-.73-2.2c-.39.11-.46.53-.85.65a2.29,2.29,0,0,1-1.44.12c-.36-.15-.23-.6-.8-.52s-.63-.22-.13-.51a4.78,4.78,0,0,1,1.26-.56c.55-.13.69-.57,1.09-.93a2.75,2.75,0,0,0,.54-2.62c-.13-.33-.21-.79-.63-.84S22.73,50,22.73,49c0-.62-.14-.55-.58-.88a2.47,2.47,0,0,1-.69-1.32c-.13-.39-.08-1-.45-1.29s-.91-.2-.8-.7a14.09,14.09,0,0,1,2-.18c.25,0,.47.15.73.17a2.61,2.61,0,0,0,.73-.15c.25-.05.86.37,1,.58s0,.57.06.84.13.77.15,1.18.43.77.71,1.18.85.41,1.32.64a9.06,9.06,0,0,0,1.45.59c.6.17,1,.68,1.65.72A1.87,1.87,0,0,0,31.18,50c.25-.25.84-.82.84-1.1s0-.51,0-.76.28,0,.23-.33c-.09-.59-.7-.93-.87-1.47-.06-.18.05-.38-.17-.49s-.39-.07-.44-.35c-.1-.61,0-.64-.48-1s-.27-.81-.54-1.16c-.14-.18-.35-.14-.52-.25s-.53-.49-.81-.71c-.79-.63-1.92-1.06-2.12-2.19-.08-.42-.1-.86-.66-.86a2,2,0,0,1-1.48-.8c-.17-.24-.72-.46-.57-.85.07-.19.37-.16.52-.25s.21-.29.29-.5c.32-.85,2.38-.48,2.46-1s-.32-.47-.64-.53A13.41,13.41,0,0,0,24.92,35c-.54-.05-.26-.66-.07-.94a3.11,3.11,0,0,0,.36-1.79c0-.91-1.34-1.48-.76-2.59.26-.5.86-.09,1.14-.46.57-.76-.87-.45-1.12-.48-.47,0-.64-.67-.59-1.05s.45-.63.66-1,.49-1,.38-1.32c-.2-.52-.42-.78-.91-.39-1,.75-1.54-1-2.42-.49a.76.76,0,0,1-1.14-.35c-.12-.26-.32-.21-.52-.37a6.09,6.09,0,0,1-.52-.57,1.72,1.72,0,0,0-1.06-.64c-.37,0-.92.51-1.25.34s-.25-.38-.39-.53-.45-.2-.69-.31c-.62-.28.28-1,.45-1.19A8.3,8.3,0,0,0,18,19c.48-1.22-1.72-.66-2.18-.93s1.06-1.38,1.15-1.75-.14-.92.08-1.34.48-.24.9-.15,1.07.14,1.3-.32a4,4,0,0,1,.7-1c.27-.19.69-.71.34-1.05-.54-.54-.27-.44.42-.53.31,0,1,0,1.05-.39s0-1.2.3-1.43.57-.56.9-.81c.15-.12.38-.21.48-.38s-.13-.65.32-.7.5.15.86-.31c.13-.17,1-1,.93-.35,0,.33-.84.61-.39.94s-.1.43-.37.49c-.78.19-2.59.88-1.21,1.64a4.69,4.69,0,0,0,1.35.44c.77.16-.57.64.3.81.28.05.36,0,.51.21s.18.37.3.44c.44.27.27.65.49,1.06a3,3,0,0,0,1.12.85,1.78,1.78,0,0,0,.88.31c.27,0,.67-.09.83.21s-1.4.82-.9,1.6c.26.41.78.61,1,1.09s-.11,1.23.48,1.15c.22,0,.5-.15.71,0s.19.23.44.24c.57,0,.57-.36,1.05.15,1.09,1.15,1.67-.61,2.49-.93.53-.21.59-.1.93.28.2.23.51.81.9.64s.91.08,1.38,0a1.32,1.32,0,0,1,1.21.26c.34.22.94-.07,1.34.12.17.08.44.07.56.23s0,.26.21.26.35-.4.51.08c.05.17.18.21.06.35s.31.54.41.66c.31.41.85.39,1.33.43s.74.57.91.87.35.24.51.43a3.94,3.94,0,0,1,.68,1c.3.86-1.57,1.75-.85,2.8.26.38.59.54.63,1.07.07.77-.69.12-1,.29-.65.39-2,.85-2.12,1.71s-.55.78-1.08,1.27c-.31.29-1.07.63-1.06,1.15s0,.77-.56,1.14-.78.28-1,.83c-.08.2.07.32.19.45s0,.28-.07.53c-.13.5-.37,1,0,1.47a2.24,2.24,0,0,1,.26.63c.06.18-.08.36,0,.51a4.24,4.24,0,0,0,.43.5c.15.13.52.08.61.26.27.55,0,.78.75.89.26,0,1.21.43.52.52A.92.92,0,0,0,42,41c.17,0,.36-.09.53,0s-.24.4-.27.47c-.2.55,0,1.21-.47,1.64a8.64,8.64,0,0,1-1.51.92,3.46,3.46,0,0,0-1.1,1c-.24.41,0,1.55.08,2,0,.23.89,1.23-.13.81-.86-.35-1.27-.05-1.63.66-.23.44-.82.37-1.22.69s-.16,1.22,0,1.57c.33.65.13.75-.58.71s-.86,1-.67,1.49.86.72.9,1.41.65.87,1.16,1.1a4.6,4.6,0,0,1,.95.47c.19.15.35.4.61.43s.63-.09.89.11c.43.33.11.46.18.87" transform="translate(-15.76 -7.25)"/><path id="path5890" class="cls-1" d="M53.69,29.51c-.05.11-.27.08-.37.11a1.36,1.36,0,0,0-.74.35.88.88,0,0,0-.15.32c-.07.2-.17.38-.25.57s0,.55-.24.73a.62.62,0,0,1-.35.09c-.2,0-.22,0-.35-.11s-.17-.17-.18-.34,0-.32,0-.48,0-.24-.1-.34-.25-.17-.37-.26a1.74,1.74,0,0,1-.34-.29,3.42,3.42,0,0,1-.2-.45c-.18-.34-.27-.63-.62-.78-.15-.06-.26-.19-.41-.26a2.83,2.83,0,0,1-.56-.31c-.3-.25-.61-.51-.55-.95.31-.15.43.12.67.24a5.83,5.83,0,0,1,.66.38c.27.18.52.23.56-.15a1.84,1.84,0,0,0,0-.41,1.53,1.53,0,0,0,0-.22c0-.07-.08-.1-.11-.16a.8.8,0,0,1-.08-.36c0-.17.22-.18.34-.27a2.15,2.15,0,0,0,.27-.33,1.63,1.63,0,0,1,.36-.29,3.19,3.19,0,0,0,.41-.19,2.65,2.65,0,0,0,.34-.34c.08-.09.18-.16.26-.25a3.17,3.17,0,0,0,.26-.44,1.49,1.49,0,0,1,.37-.45c.24-.15.34.07.45.24s.12.16.17.24.13.26.34.25a.41.41,0,0,1,.45.37c0,.24,0,.47.07.71a.71.71,0,0,0,.12.29.73.73,0,0,1,.1.38,1.4,1.4,0,0,0,.18.6c.07.11.18.13.26.23a.51.51,0,0,1,0,.36c-.4,0-.59.4-.59.75a7.48,7.48,0,0,1,.11,1.22.33.33,0,0,1-.22,0" transform="translate(-15.76 -7.25)"/></svg>