<svg id="Calque_1" data-name="Calque 1" xmlns="http://www.w3.org/2000/svg" viewBox="0 0 32.53 26"><defs><style>.cls-1{fill:#666;}</style></defs><title>image-H</title><path id="FR-H" class="cls-1" d="M19,20.81l.15-.22.41.39-.39.41.2.28h.14l.28.46.76-.23.13.28.38-.08,0,.29.66-.26.08.29,1.43-.49.4.18,1.22-.81.23.48.5-.09.11.35.18-.22.35.59.74-.37.26.31-.28.27.25.08.81-.2.44-.63.68.9.27-.27,1,.31-.09.31.4-.17.67.54-.21.27.65.15.31-.58.48,1,.76-.67.9,1,.45-.22.21.35.67-.23-.13-.29L36,24l.67.62.75-.33.63.17.43-.34.29.48.33-.48.89.15.05-.75,1.05.26.4.18-.17.38.57.76-.36.89,1.3.93.21.79.62-.23.37,1,.6-.47.24,1.32,1,.27.24.53.37-.34h0l0,.89-1.29.12.59.13,0,.3-.53.15-.22.59,1.14.47.13.93-.57.8.3.26-.13.4,1.28-.26-.22.31.61.38-.89.27.19.35-.76.45.25.67-1.15.32.49.87-.84.25.35.61-.22.66.47.21-.12.59h0l-.6-.23-.17.64-.45.06-.82-.27-.43.39-1.75-.19-.57.55-.86-.24-.49,1.26.5,1.28-.66,1-1,.54v.47h0l-1.09.16-.72.61-.28,0,0-.85-.56.35-.41-.31.28.49-.75.5-2.25-.4-.58.38h-1.2l.61-.94.36.19.17-.24V44.23l-.72-.66-.72-.12-.3-1.29-.7.18-.48-.58-.37.33h0l-.08.15h0l-.49-.06-.34.39v-.77l-.66-.28-.34.76-.45-.11.18.4-.91-.19-1,.52-1.05-.09-.23-.5.3-.06-.14-.66.3-.51L23,40.67l.18-.49-.76-.1,0-1.18-.35.4h-.58l-.4-.15L21,38.67h-.53l-.4-1.08.18-.94-.46-.48-.74-.06.09-.87h-.76l-.37-.83-.62-.35.16-.55-.54-.33.77-1-.7-.33,0-1.63.29-.2-.33-.12.12-.36-.6-.24.27-.47-1-1.17h0L15.75,27l.41-.27-.75.06.13-.89L15.07,25l.22-.24.4.31.33-.82.17.38h.08l1.49-.38.54-1.08.26-1.87Z" transform="translate(-15.07 -20.59)"/></svg>