<svg id="Calque_1" data-name="Calque 1" xmlns="http://www.w3.org/2000/svg" viewBox="0 0 48.99 47.68"><defs><style>.cls-1{fill:#737373;}</style></defs><title>image-B</title><path id="FR-L" class="cls-1" d="M11.1,36.82l.56.39-.2.7,1.06.53.1,1.13-.82-1.31-.75,0-.55-.66.14-.42-.23-.27Zm16.73-31,.92.4.44-.11.24-.49.66.44.9-.06.45.94.49-.21.27.62.65-.29-.24-.5.59.11.36-.36.17.87.76-.58.65,0,.58-.76,1.6,0,.61.55.45-.81.7.32.42-.62L39.21,5l.19-.33H40l.87.76-.4.37L40.85,7l1.36.12V8.69l.71-.48.22.35.62.07L43.93,8l1.21-.69L45,6.94l.41.14,0-.31,1.81-.33.77.46.37.73-.17.28.31,1.9,1.23.49.14-.25,0,.54.6.76,1.25.06.21.27-.1-.49.31-.16.43.2.76,1.4.32.16.52-.29h0l1.67,1.17-.92.12-.14.62-.39.09.45.1,0,.47-.69.05.05.7.63.16-.33.92.43,1-.47.17-.06.92-.3-.49-.41.23.11,1.44-1.07,1,.13.34-1.06.32-.58.71.14.62.33-.1-.32.44L49.47,24l-.21.54-.35.06-.58-.57-.27.5.54.85-.27.17-1.8-.87-.34.14h0l0,.18h0l-.56,1.2.45.25L46,27l-1,2.09.41.37-.6.42.1.3-1,1.35,0,1.33-.37.45.2.13-.19.52h0l-.5-.23-.37.31-.47,1,.06.57-.71-.29-.22.75-.38.21-.7-.33.51-.69-.58-.1-.29.29-.86-.24-1.05.39-.79-.09-.16.51-.71,0-.32.32.31-.58-.49,0-.87.4.18.65-.78.73-1-.13-.12.32-.5.08-1-.44-.3.37L31,37.62,30.9,38l-.61-.1.27.38.19-.12-.21.33H31l-.16.22.73.28-.33.74.78.92h.06l.56.38h.1l.37.24-.28.26h0v.08h0l0,.76.9,1.13-.33.28.6.47-.3.55.6.3-.18.94.33.88-.62.24.55,1.34-.41.47-.05.7.29.13.21-.46.94.59-.28.52h-.59l-.06.3-.47.14-.12.44-.71-.17-.34.47-1.14-.46,0-.35-.39.09h0l-.06-.09h0l-.27.5-.51-.19-.63.34-.42-.25.45-1-.63.4-1.11,0-.3.66h-.58l-1.21,0-.06.92-1.55-1.3L24,50.89H22.22l-.66-1.25-1.9-.33-1.82-1.48-.5,0-.62-2.36-1.28-1.79-.26.08-.7-1.1L12.7,41.07l-.14-1.39.58-.05L13,39.28,14.24,38l-.18-.17.25-.66L15,36.8l-.37-.68L14,35.45l-.75-.25H13.1l-1.86-.54.45-.57.52.08.16-.25-.07-2-.57-.12-1.24.77-1.07-.94-.59,0-.2.38L7,31.41,7.55,31l0-.61-.76-.75,1.42-1v-.51h0l.49-.6.31.43,1.19-.1.27-1.15.55,0,.2.41.84-.38-.06.37.36.11.09-.66.84-.24,0-1.28.27-.36-.23-.41.23-.39L14,24l.17-.41.39.06L15.1,23l.26.47,1.34-.78,1.27.23,1.55-.25.53-1.13,2.1-.82-.08-.68,1.28.15.35.61,1.64.47.35-1.57.49-.34-.13-.48.28-.16.3-1.4.41-.13,0-.32,1,0,.47-.4-.24-.61.17-.78-.41-.46-.34-2.32h0l-.06-.05h0L27.39,11l.79-1.32-.51-1.82Z" transform="translate(-6.84 -4.67)"/></svg>