<svg id="Calque_1" data-name="Calque 1" xmlns="http://www.w3.org/2000/svg" viewBox="0 0 50.44 43.3"><defs><style>.cls-1{fill:#ccc;}</style></defs><title>image-E</title><path id="FR-A" class="cls-1" d="M56.27,28.72l-1.11-.35L54.72,28l-.78-.21-.44-.48-.15.26L53,27.44l-.23.24L52,27.17l-.61.35,0-.2-.61.19-.42-.16,0-.29-1.08-.38-.35-1.13-.61.07.09-.3-.83.2,0,.45h-.38l-.34.45-.5-.24-.5.23-.14-.24-.28.16L45.08,26l-.22,0,0-.26-.19.12.07.3-.37.25-.18-1.22-.23.05-.4-.35-.14.11-.22-.32-.47.22-.34-.22-.23.16.25.51-.28.44-.58-.25-.43.07-.28-.37.13-.49-.3,0-.07-.54-.3-.15.1-.34-.58-.34-.49-.72.35-.3L39,21.82l.18-.28L39,21.35l-1.2-.71-.35.2-.27-.1,0,.18-.31-.12-1-.74L35,20.2l0,.19h-.34l-.28.63L34,20.8l-.16.3L33.16,21,33,20.37l-1-.09-.35-.36,0-.34-.21.09L31,19.25l-.28.39-1.08-.18-.32.68-.57-.36-.87.51-.45-1.57-.85-.56-.35.32-.08-.29.26-.39-.65-.68-.28.18-.8-.13,0-.36-.36,0-.35-.79L23,15.74l-.14-.29-.93.23-.57-.12.24-.43-.29-.76.43-.69-.43-.62-.59-.16v-.17l.54-1.12-.22-.43.19,0,.14-.56.22.22,0-.51.3-.28-.72-.51-1.39,1.35V12.3l-1,.14L18,13l-.81.21-1.42-.51-.81.17h0l-.15.73.4.16,0,.57-.49,1.42.46.37-.67.93-.61.34-.12.72L13,18.05l-.18.25.57.82-.29.42.27,0,0,.28-.39.28v.63l.27.35-.32.11V22.5l-.8-.27-.37-.47-.71.42,0,.56-.76-.18-1.38.68.21.71-.14.24.27.31-.25.35.29.25.17-.16.17.48.36-.07v.35L9.47,26l-.2-.19-.67.06-.22.49.39.67-.53.27,0,.37.68-.1.28.46-.38.16-.21.6-.32.1.14.27-.31.06,0,.39-.44,0-.44.94h0l0,.6-.87.08.4.09,0,.2-.36.1-.15.4.77.32.09.62-.38.54.2.17L6.82,34l.87-.18L7.54,34l.41.26-.6.18.13.23L7,35l.17.45-.78.21.33.59-.57.17.24.41-.15.45.32.14-.08.4h0l.14.5L7,38l.39.15.42.73.45.3-.1.26.43.24-.19.56.21.11L8.16,41l.54-.08.38.78.58-.25-.09-.28.35.13-.09.52.54.23.32,1.14.52.45v.19l-.33,0,.13.32.29.07.15-.35.2.34-.19.78,1,0,.19-.19L13,45l.16-.32h.31l.21.29.46-.45h0l.13-.07h0l.37.28.11-.32-.19-.09.33-.07,0,.35.24.3.5.08.23-.56,2.5-.1-.19-.6.44-.35,1,.24.31-.16.39.3.58,0,.17.27-.26.41.63,0,.21.31-.35.49.3.19.09-.33L22,45.1l.39.84h.14l.4.91-.8.63.45.08.1,1.17.63-.38v.28l.33,0-.08.42.27,0,.39.38.63-.52-.05.43.67.55.22-.09-.22.4.17.31.71-.55.34.33.67-1.33.44.08.21-.19.44.17.44-.53.31.54,1-.19-.06-.58.25-.38,0-.32L30,47.29l.15-.64h.53l.2-.61.7.11.21-.81.38.07V45l.51-.81.28.14-.33.47.23,0,.22-.33h.33l.39-.73,1-.25h0l0,0h0l.28.63-.16.17.61.3,0,.16h0v.08h0l.87-.37,1.06-.08.48.29.45.87.68-.27.21-.46.45-.19.4.64,1.45.83.39.55.18-.08.26.58,1.56.61.34.94L43.83,50l.16.21.22-.18.47.12.59,1-.11.33h0l.72.14-.33.77.65.07.11.28.89-.31.6.14.72-.6-.36-.14.11-.23.6.2.24-.24L49,51.29l.26.09.08-.2L49,51l.88-.56.09-.44-.71-.87-.12-.56.38-.56-.19-.7.34-1-.06-.58.68-1.44-.55-1L49.78,42l.93-1.58L51,39.18l.54-.4-.13-1,.37-1.5.39-.38-.06-1.09.41-.89,1.3-1.27L53.9,32l.46-.05.15-.4.62-.26.62-1.61.82-1.11Z" transform="translate(-6.11 -9.5)"/></svg>