<svg id="Calque_1" data-name="Calque 1" xmlns="http://www.w3.org/2000/svg" viewBox="0 0 49.83 31.3"><defs><style>.cls-1{fill:#b3b3b3;}</style></defs><title>image-K</title><path id="FR-E" class="cls-1" d="M26.83,49.75l.39.18,0,.1.76.18.23.68,1,.29-.18.54-.23.16-1-.46-.66.17L27,51.4l0-.48-.35-.48Zm.31-29.17.25.43-.18.28L29,20.58l-.19.76.38-.06-.2.27,1-.06L30,22l-.52.39.18.09.53.26.51-.18.3.32-.22.69L32.51,25,32.44,26l1.43.78-.35.62.37-.16.51.89-.11-.89.73.21-.08-.3,1-1.24L37,25.48l-.2-.45.68-.15.23.47,1.34-1.18.09.33.37.07-.71,1,.3.2.93-.68,0,.57.46.57.19-.47.22.69.33-.2L41,26l.28-.43.34.35-.36-.65L41.8,25l.21.24.65-.12-.1.25.37.16-.13.37.23-.09.29.43-.24.22.56.55-.31.43.14.54.27-.61.13.08L44,27.2l-.36,0,.13-.29-.36-.68.52.28-.18-.42-.52-.19,0-.29-.47-.38,0-.32.65-.46-.13-.19h.73l-.31-.11.32-.26.39.25.82-.45.1.65-.35.24-.08.58.34.46.85.22,2.71-.6h0L50,28.13l.5,0,.38.52.89-.16.33-.6.65-.21.33-.68,2.43.71h0l-.15,1.86.47,1.7-.74,1.24.3,1.24h0l.06,0h0L55.8,36l.39.43-.16.73.22.57-.44.37-1,0,0,.3-.39.12-.28,1.31-.26.15.12.45-.45.32-.33,1.47-1.54-.44-.33-.57L50.16,41l.08.63-2,.77-.5,1.06-1.45.24-1.19-.22-1.25.73-.24-.44-.52.54-.37-.05-.16.39-.39,0L42,45l.22.39-.25.34,0,1.19-.78.22-.08.62-.34-.1.05-.34-.79.35-.19-.38-.52,0-.25,1.07L38,48.42,37.7,48l-.45.56h0l-.5,0-.08-.82.8-.12-.9-.51-1.48.39-.11-.3-.35,0-.32.48-.59-.24-1.18.39-.46-.23-.32-.68-.41,0-.09-.36-.61-.23-.07.22-.33-.25-.42,0L29.56,46l-1.09.18-.06,1.09.64.88-.68-.09L28,47l.36-.3-.19-1L26.32,44l-.7-.2-.28.19-.07-.49-1.16.29-1-1.33-2-.24-.64-.57L20,41.9H18.82L18.2,41l.27-.47-.24,0-.4-.22-.21-.61-.57.37.19.56-.88.23-.85-.56L15,40.6l-.59,1.18H12.06l-.21-.34.49-.38L12.18,40l-.83-1.46-1.18-.84-.5-.13-.26.23-.83-.57-.86.05L7.19,37l.4-.09-.1-.41,2.14-.23L9.84,36l.66.07.92-.4.71,0,.76.4.5-.8-.64-1.46-.76,0-.07-.25-1.13-.4-.46.13-.25.79-.54.44.09-.78-.26-.49.38-.29-.22-.2-.81.1-.09-.5.77,0,0-1,.52-.2-.31.76.27.37.22-.23.21.29.67-.31.43,0,.27.38,1.2-.46.47,0,.14.32.17-.38-1.18-.31.45-.31-.38-.18.18-.45-.65.35-.08.37-.58,0,.26-.35-.8.31.77-1.12L11.32,30l-.17.28-.51-.07-.62.39-1.13.53-1-.34-.35.47-.86,0-.23-.63.38-.42-.44-.61.45-1.07-.21-1,.62-.81.34.1v-.38l1.23-.13.06-.55.56.12-.07-.45.36-.07v-.26l.57.31.77-.4.52.08-.47-.34,1.19-.45.66.25-.21.46.21.16.29-.31,1,0L14,24.76l.48-.56L15.59,24l.54.38.08-.59.52-.15.08-.28.08.31.41-.31-.08.58.24.2-.18.28.53.23.1-.22h.9v-.31l.31-.5.11-.1.5.37.68-.14.71.43L21.6,24l-.19.74.47-.55.17.33h.37l.19-.27-.23-.14v-.67l.46-.41-.47-.24v-.66l0-.09v-.23l.27,0,.15.32.26-.21L23,21.48l.27.06.22-.39.17.38.14-.34.28.44.41-.11-.17.46.56,0,.12-.31.91-.45.75.08Z" transform="translate(-6.42 -20.58)"/></svg>