<svg id="Calque_1" data-name="Calque 1" xmlns="http://www.w3.org/2000/svg" viewBox="0 0 33.64 40.81"><defs><style>.cls-1{fill:#b3b3b3;}</style></defs><title>image-A</title><path id="FR-J" class="cls-1" d="M47.46,36.47l0-.26-.54-.11.19-.44-.3-.34.3-.54.8-.36-.39-.66,0-.5h-.84l.31-.54-.05-.91.82-.73-.15-.35-.54-.31-.15.26.2.3h-.35l-.24-.83L46.07,30l-.61-.88L44,29.73l-.61-.46-1.2,0-.46.84L41.18,29l.19-.61-.18-1-.61-.72-1.26.16.21-.67L39,26l-.32.49-.83.28-1-.61-.15-1.3-.46-1.15.3-.34-.05-.46-.81-.43-.47-1.19-.46-.08-.28.39-.85,0-.73.41-.54,1.1-.7-.57-.34.13-.33-.2-.77-1.54-.63-.22-.39.18-.42-.69.11-.9-.22-.4.49-.51-.29-.79-.39-.23-.35-1.61-1.91.78-.32-.23-1.73.6-.41.11h-.24l-.58.3-2.68.64-1.47.48-1,1.08-.94.28L17.26,21,17,22.31l-.21.29-.11-.44,0,.27.16,2.88.69,1-.57-.46-.38,2.52.82.61-.81.1-.21,1.44.17.44L17,31l.37.76.64.09.13.38-.34.25-.56-.34-.28.12-.36-.4-.4,0-.46.61-.37,1.19-.87.8h0l.36.13.47-.24,0,.55,3,2.77.26,1.3.61.95-.43,0,0,.44-.38.08,0,.5-.3.22.2.25.44-.39.09.13-.63.91.28.38-.32.4.3.31-.22,0h-.05l.39.38-.05.32.28.1-.36.62.32.26.17-.4.36.14-.21.61h0l-.11.07h0l-.44.46-.13.59.3,0-.22.22.46.49.13,1.33.3,0,.07.28-.17.51L19,48.79l-.57.14-.07.59h0l.11-.16.31.3-.3.31.15.21h.11l.21.35.57-.17.1.21.29-.06,0,.22.5-.2.06.22,1.09-.37.3.14.92-.62.18.36.38-.07.09.26.14-.17.27.45.56-.28.19.24-.21.2.19.06.61-.15.33-.48L26,51l.2-.21.76.23-.07.23.3-.13.51.41-.16.2.49.12.24-.44.36.79.58-.51.68.75.34-.16.16.26.5-.17-.1-.22.47-.24.51.47.57-.25.48.13.32-.26.22.36.25-.36.67.11,0-.57.8.19.3.13-.13.29.43.58-.27.67,1,.71.16.6.47-.18.28.72.45-.36.18,1,.73.21.18.4.28-.26h0l.5-1.06.5,0,0-.44.34-.06-.15-.31.36-.11.24-.67.43-.18-.32-.51-.77.11,0-.41.6-.3-.44-.75.25-.55.75-.07.22.21.51-.3v-.4l-.4.08L41.64,50l-.19.18-.33-.28.28-.39-.3-.34.16-.27-.24-.8,1.55-.77.86.21.05-.63.8-.47.42.52.9.31,0-1.4.36-.13-.31-.4v-.7l.44-.32,0-.31-.31-.05.33-.47-.64-.92.2-.28.87.08.13-.81.69-.38.76-1-.51-.42.55-1.6,0-.64-.44-.18.17-.81Z" transform="translate(-14.51 -15.71)"/></svg>