<svg id="Calque_1" data-name="Calque 1" xmlns="http://www.w3.org/2000/svg" viewBox="0 0 32.18 45.35"><defs><style>.cls-1{fill:#737373;}</style></defs><title>image-L</title><path id="FR-B" class="cls-1" d="M19.1,23l.17.07v.58l.36.46v.26l-.16.1.09.22-.26.31L19,24.16l-.86-.76-.19-1,.31.09.4.47Zm-2-2.22h.53l1,.6.32,0,.2-.2-.16,0-.14-.3-.54-.22-.44.08-.1-.13.19-.17-.33,0-.3.16-.16-.18.34,0-.18-.26-.46.13,0,.14ZM45,18.49l.05.4.34.1-.23.31.46.35.17-.22.25.51.07-.14.37.17.32,1,.29.34L47,22l.16.41.22.13-.06.46.14.2-.34.16-.15.26.09.19-.41.28-.06.24-.23,0h0l-.19.33-.2,0-.1.14.4.69.3.11.28.4v.71h-.26l-.18.47.2.37.21.07L46.52,29l.3.28-.35.23-.69-.43H45.5l.15.26-.07.53-.32.16-.2.35-.15,0-.21.44-.34.28.05.42.23.16-.39.29,0,.57-.22,0-.33.27.32.6-.24.2h0l-.06,0h0l-.29.08h0l-.55,0-.28.23-.05-.21-.24,0-.77.57L41.13,34v-.2l-.32-.13-.17-.36L40.26,33l-.41-.09-.22.12-.07-.18-.92.43h0l0,.12h0l.21.79-.21.06.2.33-.57.37,0,.33-.5.16v.21l.18.12L38,36l-.12,0-.09.28-.13-.06-.34.4-.55.14,0,.32-.43.46.07.21-.43.12-.22.25L35.52,38l.26.38V39l.28.18,0,.62-.8,0-.08.17-.15-.4-.18,0-.2.72.18.14.17-.07.25.28-.16.08-.16.77-.39.07,0,.13.19,0,.06.38-.23.11-.53-.17.06.33-.3,0-.13.46-.56.38-.52-.57L32.4,43H31.7l-.14.28-.45.23-.48,0-.1.19-.52-.2V43.3l-.29.07-.26.43-.22-.29-.52.41.15.45-.13.21-.59-.33.2-.25-.31-.31-.07.24-.35.13,0,.2-.22-.15-.24.16L27,44.15l-.44.42.39.3L26.8,45l.11.48-.24,0,.06.58.18.13-.4.3.06.53-.16,0v.16l-.14-.07,0,.25.24,0,.06.33.45-.14.12.16.47,0,0,.39.2,0,.19.36-.07.21.23.2-.35.09,0,.28.15.16-.12.08H28l.31-.35,0,.73.24.26-.14.21-.27,0-.14.28.21.31L28,51.4l-.17,0,0,.46-.28.1-.08-.13-.21.51-.34.15,0,.47.14.15-.59.15v.23l-.21.09,0,.71-.34.17.1.68h0l-.6.5-.35,0-.46-.32-.33.49-.92-1.06L23,54.61l0-.49-.18-.23-.4.17-.71-.13-.28.1-1.25-.71-.2.16-.16-.27-.48-.2-.25.12-.34-.25.28-.5-.54.24-.07.66-.63-.18-.24-.42L18,52.3l.24-.61,0-.69-1.07-.36-.2.06-.1.39-.23,0-.12-.55-.33-.08-.44.19-.06-.34-.36-.2.12-.14-.13-.09.81-.24.08.09.49-.45,1.12-2.16,1.09-5.69L19.13,38l.46-1.17.31,0L20,37l.76-.06.23.12-.1-.44-.38-.18h.26l-1-.81,0,.31-.43.53-.1.8-.11-.18.73-6.86,0-1.84.46-.84.25-.18.15.39-.1.06-.1.19,1,.74.93,1,.84,2.68.6.75h.18L23.45,32l-.36-2.1-.49-1.38-1-.92-.41-.12-.39-.65-.55-.18-.78-.59-.15,0,.14.22h-.11l-.11-.21v-1L20,25l-.33-.53.47-.06.29-.51,0-.3v-.13l0-.31L20.31,23l.31-.1-.36-1-.3-.12.1-.22-.33-.11.17-.2-.42.12-.23-.19.24-.23,0-.28.66-.51L20,19.73l.13-.15h.3l.16-.34.58,0,.33-.21-.23.51.22.13.33-.18.27.1.14-.26h0l0,0h0l.2,0,0,.18.59.24.18-.25.37.09.06-.23.25-.07,0-.16h.31l.14-.27-.49-.31-.11.24-.15-.07,0-.36.21-.24-.29-.69.32-.13-.17-.46.1-.49-.31-.16.16-.29-.31-.24.17-.15-.47-.59,0-.4h0v0h0l.15-.14L23,14.22H23l-.29-.2h0l-.41-.48.17-.39L22,13l.08-.12H21.9l.11-.17-.1.06-.14-.2.32.05.07-.21.25,0,.15-.19.53.23.26,0,.06-.17.52.07.4-.38-.09-.34.45-.21.26,0-.16.3.17-.17.37,0,.08-.26.41,0,.55-.2.45.12.15-.15.3.05-.27.36.36.17.2-.11.12-.39.37.15,0-.29.24-.5.19-.16.26.12h0l.18.19V11l.44-.06,0,.19.2.07.14-.15.13.25-.16.35.25.05.23-.19.16,0v.27l.25-.09.07.57-.16.09.24.64.3-.2.54.21.49-.31.68,0-.22-.52h.36l.12.23.42.13.09.75.35.47.32.11.14.64.71.66.11.35-.17.15L35,16l-.18.22.13.3.39.32.37,0,0,.33h.53l.38.31,0,.62.27.08,0,.13.21-.06-.11.34h0l-.13.18h0l.09.09.14-.14.07.26.29-.13.33.07.07-.25.3-.05.45.57.81-.85.14.36.47-.3.14.35.42-.32.32.3.23-.37-.09-.26.26-.07.41.33.33-.17.34.11.34-.12.8.35.79-.19Z" transform="translate(-15.24 -10.44)"/></svg>