<svg id="Calque_1" data-name="Calque 1" xmlns="http://www.w3.org/2000/svg" viewBox="0 0 32.4 40.46"><defs><style>.cls-1{fill:#ccc;}</style></defs><title>image-I</title><path id="FR-F" class="cls-1" d="M30.4,14.24,31,15l-.18.32.41.17-.08.24.23.08-.2.14,0,1.11.48.23-.53.7.37.22-.11.38.42.24.25.57h.52l-.06.6.51,0,.32.33-.12.64.27.74h.36l.08.32.28.1h.39l.24-.27,0,.81.52.07-.12.33.24.27-.21.35.1.45-.21,0,.15.34.72.06.67-.36.62.13-.12-.27.31.07.23-.52.45.19v.53l.23-.26.33,0h0l.05-.1h0l.25-.22.33.4.48-.12.21.88.49.08.49.45v.93l-.11.17-.25-.13-.42.64h.82l.4-.26,1.54.28.51-.34-.19-.34.28.21.38-.24,0,.58.19,0,.49-.41.75-.11h0l1,.47-.14.27h.21l.15.69.79.68-.27.16.27.2,0,.53-.35.41h0l-.06.05h0l-.41.51-.43.08,0,.51-.18.1.39.27-.2.26.13.73-1.83.46,0,.63.32-.05v.26l.5.34-.08.21.36.37-.22.29,0,.43.42.46-1.22.35h0v-.06h0l-.13.19.87,1.55-.66,1.55.12.34,1.08.85,0,.51.55,1.66-.14.88.63.62-.15.75.17.29-.32.74.21.86-.4.87h0l-.71-.14-.45.17-.75.72,0,.31-.5-.14-.4.27-.29-.47-.19,0L43,49l-.81.44,0,.48L42,49.74l-.37.19.27.3-.31.47.39.22.12.63-.82.52-.52-.21-1.33.24-.4.7h-.26l-.19.77h0l-.88-.13-1.14.28-1.16-.5-.49.18-.5-.16-.48.24L33.36,53l-.37.09.13.38-.33.53-.46-.43-.6.46-.2-.51-.68.44-.2-.52L29.49,54.7l-.65-.82-.43.07-.1.36-.47-.1-.42.19-.1-.37-.2.21L27,54.11h0l.19-.26h0l.16-.49-.31.05h0v0h0l-.51-.58.24,0-.3-.72-.38-.29h-.77l-.06-.47-.53-.06-.56-.46L24,50.38l.25-.32-.13-.45.25-.22-.15-.5-1-1L23,47l-.46-.15-.5-.67-.13-1.08-.61-.19-.17-.33-.52,0,.32.75-1,0-.71.45-.77-.31-.44.29-.34-.92.22-.12-.1-.82-.37.13v-.38l-.23-.06-.34.27-.37-.08.23-.5-.19-.36-.21.22L16,43l.06-.27-.63.09v-.41l-.27-.28h0l.14-.39-.15-.1.27-.34,0-1,.73-1L16,39.1l.45-.31-.31-.28.72-1.56,0-.42-.34-.18.42-.89h0v-.13h0l.25-.11,1.34.65.2-.13-.41-.64.2-.37.43.43.26,0,.15-.4,1.39-.42.24-.33-.24.07-.11-.46.43-.53.79-.24-.1-.25.8-.76-.08-1.07.31-.18.23.37,0-.69.35-.12-.32-.72.25-.68L23,28.56l0-.52.52,0,0-.35-.34-.07.29-.07.1-.46.68-.09L23,26.08h0l.34-.3L22.88,25l.19-.45-.54-.17.15-.36.19-.3,1.33-.5.65-1.07-.38-.25,0-.32.21-.09-.14-.28.26-.37-.44-.21.16-.2-.14-.17-.79-.35,0-.43-.29,0,.14-.35-.17-.57h0l.51-.28.13-.44.48.1.7-.26h.22l.27,0,.3-.48.55.19.06-.68,1.07.5.22-.19.14.2.79-.06.42-.32-.11-.85,1-.6.12-.4-.25-.43Z" transform="translate(-15.14 -14.24)"/></svg>