<svg id="Calque_1" data-name="Calque 1" xmlns="http://www.w3.org/2000/svg" viewBox="0 0 38.98 38.95"><defs><style>.cls-1{fill:#fff;}</style></defs><title>logo</title><path d="M13.49,39.54a19,19,0,0,1-5.77-7.4l14.74-19.9Z" transform="translate(-5.63 -5.05)"/><path class="cls-1" d="M21,15,13.24,38.7a18.51,18.51,0,0,1-4.95-6.49L21,15M23.9,9.46h0Zm0,0L7.14,32.08a19.55,19.55,0,0,0,6.6,8.28L23.9,9.46Z" transform="translate(-5.63 -5.05)"/><path d="M27.33,5.68a18.94,18.94,0,0,1,14.34,9.54L17.12,36.75Z" transform="translate(-5.63 -5.05)"/><path class="cls-1" d="M27.67,6.22A18.44,18.44,0,0,1,41,15.12L18.16,35.17,27.67,6.22M27,5.14,16.07,38.34l26.23-23A19.49,19.49,0,0,0,27,5.14Z" transform="translate(-5.63 -5.05)"/><path d="M23.93,43.48a19,19,0,0,1-8-2.3L36.9,22.83Z" transform="translate(-5.63 -5.05)"/><path class="cls-1" d="M34.65,25.46,23.67,43a18.51,18.51,0,0,1-6.82-1.89l17.8-15.61m4.48-5.26h0Zm0,0-24,21.07A19.38,19.38,0,0,0,24.2,44L39.14,20.2Z" transform="translate(-5.63 -5.05)"/><path d="M6.7,29.19A19,19,0,0,1,24.2,5.57Z" transform="translate(-5.63 -5.05)"/><path class="cls-1" d="M23.15,6.15,7,28A18.51,18.51,0,0,1,23.15,6.15m2-1.1A19.5,19.5,0,0,0,6.5,30.31L25.21,5Z" transform="translate(-5.63 -5.05)"/><path d="M43,18A19,19,0,0,1,27,43.43Z" transform="translate(-5.63 -5.05)"/><path class="cls-1" d="M42.82,19.18A18.51,18.51,0,0,1,28,42.8L42.82,19.18m.24-2.26L26.06,44a19.5,19.5,0,0,0,17-27.08Z" transform="translate(-5.63 -5.05)"/></svg>