<svg id="Layer_1" data-name="Layer 1" xmlns="http://www.w3.org/2000/svg" viewBox="0 0 512 512"><defs><style>.cls-1{fill:#f25038;}.cls-2{fill:#fff;}</style></defs><title>up-arrow</title><path class="cls-1" d="M271.08,155.59a21.31,21.31,0,0,0-30.17,0L91.58,304.92a21.33,21.33,0,1,0,30.17,30.17L256,200.83,390.25,335.08a21.33,21.33,0,1,0,30.16-30.17Z"/><path class="cls-2" d="M0,0V512H512V0ZM420.42,335.08a21.32,21.32,0,0,1-30.17,0L256,200.83,121.75,335.08a21.33,21.33,0,1,1-30.17-30.17L240.92,155.59a21.31,21.31,0,0,1,30.17,0L420.41,304.92A21.31,21.31,0,0,1,420.42,335.08Z"/></svg>